# xmcd
#
# Track frame offsets:
#	150
#	13182
#	25632
#	41603
#	62821
#	84495
#	101516
#	122656
#	141478
#	156923
#	176794
#	191640
#	216612
#	240003
#	259950
#	278370
#	302743
#	317861
#
# Disc length: 4487 seconds
#
# Revision: 2
# Processed by: cddbd v1.5.2PL0 Copyright (c) Steve Scherf et al.
# Submitted via: audiograbber 1.83.01
#
DISCID=fe118512
DTITLE=Viva La Salsa - Viva La Salsa (Número Cuatro - CD 1)
DYEAR=2007
DGENRE=Salsa
TTITLE0=Tito Puente - Plaza stomp
TTITLE1=Quincy Jones and His Orchestra - Soul bossa nova
TTITLE2=Rosa Cruz - El talisman
TTITLE3=Cuba L.A. - Son de La loma
TTITLE4=Candido Fabre and Su Banda - De Cuba vengo y cubano soy
TTITLE5=Clarissa Y Las Diablitas - Mi negrita
TTITLE6=Mamborama - La gata loca
TTITLE7=Manolo Vega El Mago - Sal y pimienta
TTITLE8=Los Chicos - Mambo tropical
TTITLE9=Mauricio Venegas y Efrain Rios - El montuno de Maria
TTITLE10=Alberto Duarte - Abeya al panal
TTITLE11=Kariba All Stars - Livin' like the wind
TTITLE12=Fiebre Latina - Te pareces tanto a él
TTITLE13=Ruben Rodriguez - Esperanza
TTITLE14=Ritmo Alegria - Bongo
TTITLE15=Son Candela - Pegate a home
TTITLE16=Ramsey Lewis - One, two, three
TTITLE17=Salomé De Bahia - Cada vez
EXTD=YEAR: 2007
EXTT0=
EXTT1=
EXTT2=
EXTT3=
EXTT4=
EXTT5=
EXTT6=
EXTT7=
EXTT8=
EXTT9=
EXTT10=
EXTT11=
EXTT12=
EXTT13=
EXTT14=
EXTT15=
EXTT16=
EXTT17=
PLAYORDER=
